<svg width="375" height="174" viewBox="0 0 375 174" fill="none" xmlns="http://www.w3.org/2000/svg">
    <g clip-path="url(#clip0)">
        <path d="M8.02882 137.712C10.4255 142.157 15.5123 144.065 15.5123 144.065C15.5123 144.065 16.7131 138.767 14.3164 134.322C11.9197 129.877 6.83294 127.969 6.83294 127.969C6.83294 127.969 5.63209 133.268 8.02882 137.712Z" fill="#2F2E41" />
        <path d="M9.67618 136.25C14.0033 138.854 15.6698 144.024 15.6698 144.024C15.6698 144.024 10.3207 144.974 5.99358 142.371C1.6665 139.768 0 134.597 0 134.597C0 134.597 5.34909 133.647 9.67618 136.25Z" fill="#009688" />
        <path d="M106.69 7.19177H79.6919V7.57744H106.69V7.19177Z" fill="#F2F2F2" />
        <path d="M99.3618 7.48102H98.9758V11.0486H99.3618V7.48102Z" fill="#F2F2F2" />
        <path d="M87.5986 7.48102H87.2127V11.0486H87.5986V7.48102Z" fill="#F2F2F2" />
        <path d="M120.381 25.7046H93.3837V26.0903H120.381V25.7046Z" fill="#F2F2F2" />
        <path d="M101.097 22.2334H100.712V25.801H101.097V22.2334Z" fill="#F2F2F2" />
        <path d="M112.861 22.2334H112.475V25.801H112.861V22.2334Z" fill="#F2F2F2" />
        <path d="M156.251 34.3824H129.253V34.7681H156.251V34.3824Z" fill="#F2F2F2" />
        <path d="M136.966 30.9113H136.58V34.4789H136.966V30.9113Z" fill="#F2F2F2" />
        <path d="M148.729 30.9113H148.344V34.4789H148.729V30.9113Z" fill="#F2F2F2" />
        <path d="M153.551 123.86H126.552V124.246H153.551V123.86Z" fill="#F2F2F2" />
        <path d="M134.266 120.39H133.881V123.957H134.266V120.39Z" fill="#F2F2F2" />
        <path d="M146.029 120.39H145.644V123.957H146.029V120.39Z" fill="#F2F2F2" />
        <path d="M107.461 61.9585H80.463V62.3443H107.461V61.9585Z" fill="#F2F2F2" />
        <path d="M88.1769 58.4875H87.7915V62.055H88.1769V58.4875Z" fill="#F2F2F2" />
        <path d="M99.9403 58.4875H99.5548V62.055H99.9403V58.4875Z" fill="#F2F2F2" />
        <path d="M115.946 108.433H88.9484V108.819H115.946V108.433Z" fill="#F2F2F2" />
        <path d="M96.6623 104.962H96.2764V108.53H96.6623V104.962Z" fill="#F2F2F2" />
        <path d="M108.425 104.962H108.04V108.53H108.425V104.962Z" fill="#F2F2F2" />
        <path d="M159.143 94.356H132.146V94.7416H159.143V94.356Z" fill="#F2F2F2" />
        <path d="M139.858 90.8848H139.473V94.4523H139.858V90.8848Z" fill="#F2F2F2" />
        <path d="M151.622 90.8848H151.237V94.4523H151.622V90.8848Z" fill="#F2F2F2" />
        <path d="M69.8205 135.677H24.1581V135.349H69.4919V119.416H27.9969L25.9811 115.216L26.2773 115.074L28.2036 119.087H69.8205V135.677Z" fill="#2F2E41" />
        <path d="M30.2354 143.726C32.1404 143.726 33.6847 142.182 33.6847 140.276C33.6847 138.371 32.1404 136.827 30.2354 136.827C28.3304 136.827 26.7861 138.371 26.7861 140.276C26.7861 142.182 28.3304 143.726 30.2354 143.726Z" fill="#3F3D56" />
        <path d="M64.2359 143.726C66.141 143.726 67.6853 142.182 67.6853 140.276C67.6853 138.371 66.141 136.827 64.2359 136.827C62.3308 136.827 60.7865 138.371 60.7865 140.276C60.7865 142.182 62.3308 143.726 64.2359 143.726Z" fill="#3F3D56" />
        <path d="M104.314 69.1549C105.493 69.1549 106.449 68.1989 106.449 67.0197C106.449 65.8404 105.493 64.8845 104.314 64.8845C103.135 64.8845 102.179 65.8404 102.179 67.0197C102.179 68.1989 103.135 69.1549 104.314 69.1549Z" fill="#3F3D56" />
        <path d="M74.7043 113.996H23.3796L12.2742 77.6961H86.1412L86.074 77.9097L74.7043 113.996ZM23.6226 113.668H74.4634L85.6934 78.0246H12.7182L23.6226 113.668Z" fill="#2F2E41" />
        <path d="M70.6978 112.107H25.6176L15.8632 79.9136H80.7432L80.6842 80.1031L70.6978 112.107Z" fill="#F2F2F2" />
        <path d="M87.0618 74.4531L86.7442 74.3688L88.9119 66.1986H101.522V66.5272H89.1647L87.0618 74.4531Z" fill="#2F2E41" />
        <path d="M82.4503 88.7011H15.863V89.0296H82.4503V88.7011Z" fill="#2F2E41" />
        <path d="M78.6366 100.804H19.5655V101.132H78.6366V100.804Z" fill="#2F2E41" />
        <path d="M49.3709 77.8605H49.0426V113.832H49.3709V77.8605Z" fill="#2F2E41" />
        <path d="M64.0789 77.8501L61.7208 113.82L62.0486 113.842L64.4067 77.8716L64.0789 77.8501Z" fill="#2F2E41" />
        <path d="M34.3414 77.8497L34.0135 77.8711L36.358 113.843L36.6859 113.821L34.3414 77.8497Z" fill="#2F2E41" />
        <path d="M222.79 143.934H0V144.319H222.79V143.934Z" fill="#2F2E41" />
        <path d="M114.82 12.1995C114.82 12.1995 117.64 20.2229 115.905 21.4572C114.17 22.6916 121.76 32.7722 121.76 32.7722L130.868 30.3035L125.88 21.8687C125.88 21.8687 125.229 13.4339 125.229 12.1995C125.229 10.9651 114.82 12.1995 114.82 12.1995Z" fill="#A0616A" />
        <path opacity="0.1" d="M114.82 12.1995C114.82 12.1995 117.64 20.2229 115.905 21.4572C114.17 22.6916 121.76 32.7722 121.76 32.7722L130.868 30.3035L125.88 21.8687C125.88 21.8687 125.229 13.4339 125.229 12.1995C125.229 10.9651 114.82 12.1995 114.82 12.1995Z" fill="black" />
        <path d="M110.089 69.3918C110.089 69.3918 109.266 79.6782 110.089 85.0272C110.912 90.3761 112.146 105.189 112.146 105.189C112.146 105.189 112.146 133.168 116.672 133.579C121.198 133.99 124.49 134.402 124.901 132.756C125.313 131.11 122.844 130.287 124.078 129.464C125.313 128.642 125.724 125.761 124.078 122.47C122.432 119.178 124.078 85.8501 124.078 85.8501L131.896 106.834C131.896 106.834 132.719 124.116 133.542 126.584C134.365 129.053 132.719 133.579 135.599 133.99C138.479 134.402 141.771 131.933 143.417 131.11C145.063 130.287 140.948 130.287 141.771 129.876C142.594 129.464 145.063 128.23 144.24 127.819C143.417 127.407 142.594 107.657 142.594 107.657C142.594 107.657 140.331 65.483 137.451 63.8372C134.57 62.1914 132.719 65.0262 132.719 65.0262L110.089 69.3918Z" fill="#2F2E41" />
        <path d="M117.495 131.933V135.225C117.495 135.225 113.792 144.173 117.495 144.173C121.198 144.173 124.078 145.1 124.078 143.866V132.756L117.495 131.933Z" fill="#2F2E41" />
        <path d="M141.771 131.928V135.219C141.771 135.219 145.475 144.167 141.771 144.167C138.068 144.167 135.188 145.094 135.188 143.86V132.751L141.771 131.928Z" fill="#2F2E41" />
        <path d="M120.581 18.1656C124.671 18.1656 127.987 14.8497 127.987 10.7594C127.987 6.66908 124.671 3.35321 120.581 3.35321C116.491 3.35321 113.175 6.66908 113.175 10.7594C113.175 14.8497 116.491 18.1656 120.581 18.1656Z" fill="#A0616A" />
        <path d="M118.318 24.5432C118.318 24.5432 120.375 30.715 123.667 29.4807L126.958 28.2463L132.719 67.746C132.719 67.746 128.193 74.3292 121.61 70.2147C115.026 66.1001 118.318 24.5432 118.318 24.5432Z" fill="#009688" />
        <path d="M124.078 23.3088L125.93 19.4C125.93 19.4 136.834 24.5432 138.48 26.189C140.125 27.8348 140.125 30.3036 140.125 30.3036L137.245 40.59C137.245 40.59 138.068 63.22 138.068 64.043C138.068 64.8659 140.948 69.3919 138.891 67.7461C136.834 66.1002 136.422 64.4544 134.776 66.9232C133.13 69.3919 129.427 72.2721 129.427 72.2721L124.078 23.3088Z" fill="#3F3D56" />
        <path d="M138.48 52.9337L137.245 64.4546C137.245 64.4546 129.839 71.0379 131.485 71.4494C133.131 71.8609 133.954 70.215 133.954 70.215C133.954 70.215 136.834 73.0952 138.48 71.4494C140.125 69.8036 144.24 54.168 144.24 54.168L138.48 52.9337Z" fill="#A0616A" />
        <path d="M120.739 0.292317C119.097 0.233622 117.34 0.204588 115.955 1.08937C115.318 1.53341 114.76 2.08028 114.302 2.7076C112.954 4.41202 111.789 6.55657 112.29 8.67129L112.871 8.44443C112.871 9.00892 112.746 9.56634 112.504 10.0764C112.586 9.83819 112.86 10.2232 112.787 10.4641L112.146 12.5662C113.199 12.1801 114.51 12.9619 114.67 14.0723C114.743 11.6307 114.997 8.83092 116.977 7.40126C117.976 6.68029 119.24 6.4602 120.456 6.26475C121.578 6.08444 122.755 5.91251 123.829 6.28189C124.904 6.65126 125.819 7.75037 125.576 8.86035C126.071 8.68965 126.625 9.035 126.87 9.49838C127.115 9.96176 127.128 10.5084 127.135 11.0324C127.664 11.4057 128.265 10.6645 128.48 10.0545C128.985 8.6228 129.434 7.09877 129.162 5.6051C128.89 4.11142 127.673 2.68399 126.155 2.67892C126.339 2.4765 126.437 2.21034 126.429 1.93673L125.177 1.83099C125.495 1.78601 125.787 1.63197 126.004 1.39526C125.501 1.94812 121.551 0.321361 120.739 0.292317Z" fill="#2F2E41" />
        <path d="M120.375 22.0744C120.375 22.0744 117.026 18.7921 115.82 18.9932C114.615 19.1942 112.969 22.0744 112.969 22.0744C112.969 22.0744 103.094 25.3661 103.505 28.6577C103.917 31.9494 108.443 47.9962 108.443 47.9962C108.443 47.9962 112.146 67.3346 108.854 69.3919C105.563 71.4492 124.49 76.7981 124.901 74.3294C125.313 71.8606 126.136 47.1733 124.901 43.4702C123.667 39.7671 120.375 22.0744 120.375 22.0744Z" fill="#3F3D56" />
        <path d="M134.777 28.6578H139.864C139.864 28.6578 143.417 44.293 143.828 45.9388C144.24 47.5847 145.062 55.4023 144.651 55.4023C144.24 55.4023 136.011 53.7565 136.011 54.9908L134.777 28.6578Z" fill="#3F3D56" />
        <path d="M134.604 67.3761H115.127C113.226 58.6326 113.067 50.1848 115.127 42.1136H134.604C131.461 50.0396 131.264 58.4295 134.604 67.3761Z" fill="#F2F2F2" />
        <path d="M107.209 56.6368L112.969 59.1056C112.969 59.1056 124.078 60.7514 124.078 56.2254C124.078 51.6993 112.969 54.1681 112.969 54.1681L109.266 52.984L107.209 56.6368Z" fill="#A0616A" />
        <path d="M108.443 26.189L103.505 27.4233L99.8021 49.2304C99.8021 49.2304 98.5677 54.9908 100.625 55.4023C102.682 55.8137 108.443 59.1054 108.443 59.1054C108.443 59.1054 109.266 52.9336 110.912 52.9336L106.797 49.6419L109.266 35.241L108.443 26.189Z" fill="#3F3D56" />
        <path d="M38.6164 68.3224H11.6185V68.7085H38.6164V68.3224Z" fill="#F2F2F2" />
        <path d="M19.3321 64.8513H18.9465V68.4188H19.3321V64.8513Z" fill="#F2F2F2" />
        <path d="M31.0956 64.8513H30.7099V68.4188H31.0956V64.8513Z" fill="#F2F2F2" />
        <path d="M48.0657 11.2415H21.0677V11.6271H48.0657V11.2415Z" fill="#F2F2F2" />
        <path d="M40.7375 11.5307H40.352V15.0983H40.7375V11.5307Z" fill="#F2F2F2" />
        <path d="M28.9744 11.5307H28.5886V15.0983H28.9744V11.5307Z" fill="#F2F2F2" />
        <path d="M75.2566 49.2311H48.2587V49.6168H75.2566V49.2311Z" fill="#F2F2F2" />
        <path d="M67.9285 49.5204H67.5428V53.0879H67.9285V49.5204Z" fill="#F2F2F2" />
        <path d="M56.1651 49.5204H55.7794V53.0879H56.1651V49.5204Z" fill="#F2F2F2" />
        <path d="M29.3601 49.0383H2.36206V49.4239H29.3601V49.0383Z" fill="#F2F2F2" />
        <path d="M22.032 49.3275H21.6464V52.895H22.032V49.3275Z" fill="#F2F2F2" />
        <path d="M10.2686 49.3275H9.88287V52.895H10.2686V49.3275Z" fill="#F2F2F2" />
        <path d="M61.7577 29.7542H34.7596V30.1399H61.7577V29.7542Z" fill="#F2F2F2" />
        <path d="M42.4734 26.2831H42.0876V29.8506H42.4734V26.2831Z" fill="#F2F2F2" />
        <path d="M54.2367 26.2831H53.851V29.8506H54.2367V26.2831Z" fill="#F2F2F2" />
    </g>
    <rect y="145" width="375" height="29" fill="#C3E3E1" />
    <defs>
        <clipPath id="clip0">
            <rect width="172.787" height="144.24" fill="white" transform="translate(0 0.267273)" />
        </clipPath>
    </defs>
</svg>
